# xmcd
# 
# Track frame offsets:
#     183
#     16953
#     29263
#     42420
#     57068
#     68780
#     81440
#     97718
#     110590
#     123293
#     135340
#     149073
#     161635
#     174038
#     185163
#     197333
#     210098
#     223535
#     237730
#     250015
# 
# Disc length: 3520
# 
# Revision: 0
# Processed by: cddbd v1.5.2PL0 Copyright (c) Steve Scherf et al.
# Submitted via: BonkEnc v1.0.6
# 
DISCID=100dbe14
DTITLE=The Nightriders - The World Of Truckers
DYEAR=0
DGENRE=
TTITLE0=Convoy
TTITLE1=Mean Bear
TTITLE2=Rubber Duck
TTITLE3=Roses For Mama
TTITLE4=Truckin' Man Type Motel
TTITLE5=Crispy Critters
TTITLE6=Won't Be No Country Music
TTITLE7=Old Home Fill Her Up
TTITLE8=Silverton
TTITLE9=Classified
TTITLE10=Big Johnny
TTITLE11=Eighteen Wheeler
TTITLE12=Right There On The Hhighway
TTITLE13=Wagon Dragon
TTITLE14=Give Up The Road
TTITLE15=Country Kings
TTITLE16=Sunset Trail
TTITLE17=Woman From The Highway
TTITLE18=Raiders In The Storm
TTITLE19=My Old Truck
EXTD=
EXTT0=
EXTT1=
EXTT2=
EXTT3=
EXTT4=
EXTT5=
EXTT6=
EXTT7=
EXTT8=
EXTT9=
EXTT10=
EXTT11=
EXTT12=
EXTT13=
EXTT14=
EXTT15=
EXTT16=
EXTT17=
EXTT18=
EXTT19=
PLAYORDER=
